<svg width="1460" height="162" viewBox="0 0 1460 162" fill="none" xmlns="http://www.w3.org/2000/svg">
    <path d="M68.0052 0H8.68956C3.30581 0 0 3.30806 0 8.69545V153.21C0 158.597 3.30581 161.905 8.68956 161.905H68.0052C81.4174 161.905 92.0904 158.124 99.741 150.658C107.392 143.191 111.264 132.511 111.264 119.09V42.8156C111.264 29.3944 107.392 18.7141 99.741 11.2474C92.0904 3.78064 81.4174 0 68.0052 0ZM73.5779 44.3278V117.672C73.5779 121.736 72.8223 124.666 71.4055 126.084C69.9887 127.501 67.0607 128.258 62.9993 128.258H37.6862V33.742H62.9048C66.9663 33.742 69.8943 34.4982 71.311 35.9159C72.8223 37.3337 73.5779 40.2636 73.5779 44.3278Z" fill="#484848" />
    <path d="M233.862 0H155.278C149.894 0 146.589 3.30806 146.589 8.69545V153.21C146.589 158.597 149.894 161.905 155.278 161.905H233.862C239.057 161.905 242.268 158.597 242.268 153.21V136.859C242.268 131.471 239.057 128.163 233.862 128.163H184.369V96.6894H224.795C230.178 96.6894 233.484 93.3814 233.484 87.994V71.6428C233.484 66.2554 230.178 62.9473 224.795 62.9473H184.369V33.6475H233.862C239.057 33.6475 242.268 30.3395 242.268 24.9521V8.60091C242.268 3.30804 239.057 0 233.862 0Z" fill="#484848" />
    <path d="M380.264 0H357.69C352.684 0 349.283 2.92998 348.433 7.93931L326.143 112.001L303.947 8.03384C303.002 2.93 299.602 0 294.69 0H272.022C268.527 0 265.977 1.03967 264.56 3.02449C263.616 4.34771 262.671 6.6161 263.71 10.0187L300.924 153.871C301.869 158.975 305.363 161.905 310.464 161.905H341.916C346.639 161.905 350.039 159.07 351.172 154.155L388.481 9.92416C389.142 6.99418 388.67 4.63129 387.253 2.83549C385.836 0.945184 383.38 0 380.264 0Z" fill="#484848" />
    <path d="M501.727 70.7918C490.865 66.3495 478.303 63.5141 464.324 62.3799C447.89 60.9622 447.89 55.0077 447.89 53.0228V48.4861C447.89 40.2633 449.495 37.4278 450.44 36.3881C451.29 35.443 453.934 33.8362 461.113 33.8362H470.464C477.547 33.8362 480.287 35.3485 481.231 36.1991C482.176 37.0497 483.687 39.5071 483.687 46.3123V47.73C483.687 53.1174 486.993 56.4254 492.376 56.4254H512.778C518.162 56.4254 521.467 53.1174 521.467 47.73V43.1932C521.467 29.772 517.5 19.0918 509.85 11.5305C502.105 3.9693 491.337 0.188675 477.736 0.188675H453.746C440.333 0.188675 429.566 4.06382 421.915 11.5305C414.17 19.0918 410.298 29.772 410.298 43.1932V51.6051C410.298 62.1909 412.376 70.9808 416.437 77.8804C420.593 84.8746 425.977 89.6949 432.305 92.1523C438.067 94.3261 444.3 96.2165 451.006 97.6342C457.713 99.0519 463.946 99.9971 469.613 100.47C474.619 100.848 478.775 102.171 481.987 104.345C484.726 106.141 486.048 108.598 486.048 112.001V114.931C486.048 120.318 485.104 124.193 483.403 125.8C482.176 127.029 479.342 128.352 472.825 128.352H461.491C454.407 128.352 451.668 126.839 450.723 125.989C449.117 124.477 448.267 120.98 448.267 116.065V114.174C448.267 108.787 444.962 105.479 439.578 105.479H419.176C413.792 105.479 410.487 108.787 410.487 114.174V118.995C410.487 132.416 414.454 143.096 422.104 150.657C429.849 158.219 440.522 161.999 453.934 161.999H480.098C493.51 161.999 504.183 158.124 511.928 150.657C519.673 143.096 523.545 132.416 523.545 118.995V110.866C523.545 100.659 521.467 92.0578 517.406 85.3472C513.345 78.2585 508.15 73.4382 501.727 70.7918Z" fill="#FF8400" />
    <path d="M660.501 0H640.288C634.905 0 631.599 3.30806 631.599 8.69545V117.672C631.599 121.736 630.843 124.666 629.427 126.084C628.01 127.501 625.082 128.258 621.02 128.258H604.491C600.619 128.258 597.785 127.501 596.368 126.084C594.952 124.666 594.196 121.736 594.196 117.672V8.69545C594.196 3.30806 590.89 0 585.507 0H565.105C559.721 0 556.415 3.30806 556.415 8.69545V119.09C556.415 132.7 560.288 143.38 567.844 150.752C575.4 158.124 586.073 161.905 599.674 161.905H626.121C639.533 161.905 650.206 158.124 657.857 150.658C665.507 143.191 669.38 132.511 669.38 119.09V8.41191C669.38 3.30807 665.979 0 660.501 0Z" fill="#FF8400" />
    <path d="M773.181 0H714.527C709.143 0 705.837 3.30806 705.837 8.69545V153.21C705.837 158.597 709.143 161.905 714.527 161.905H734.928C740.312 161.905 743.618 158.597 743.618 153.21V108.693H773.181C786.593 108.693 797.266 104.912 804.823 97.4455C812.379 89.9788 816.251 79.2985 816.251 65.8773V42.8156C816.251 29.3944 812.379 18.8086 804.823 11.2474C797.266 3.87516 786.593 0 773.181 0ZM778.471 44.3278V64.5541C778.471 68.5238 777.715 71.3592 776.298 72.777C774.976 74.1947 772.142 74.9508 768.081 74.9508H743.523V33.8366H768.081C772.142 33.8366 774.976 34.5927 776.298 36.0104C777.715 37.2391 778.471 40.1691 778.471 44.3278Z" fill="#FF8400" />
    <path d="M934.221 0H855.638C850.254 0 846.948 3.30806 846.948 8.69545V153.21C846.948 158.597 850.254 161.905 855.638 161.905H934.221C939.416 161.905 942.628 158.597 942.628 153.21V136.859C942.628 131.471 939.416 128.163 934.221 128.163H884.729V96.6894H925.06C930.443 96.6894 933.749 93.3814 933.749 87.994V71.6428C933.749 66.2554 930.443 62.9473 925.06 62.9473H884.729V33.6475H934.221C939.416 33.6475 942.628 30.3395 942.628 24.9521V8.60091C942.628 3.30804 939.416 0 934.221 0Z" fill="#FF8400" />
    <path d="M1064.66 99.8087C1078.26 92.9091 1085.16 80.1495 1085.16 61.8135V43.0994C1085.16 29.6782 1081.19 18.998 1073.54 11.4368C1065.79 3.87553 1055.12 0.094902 1041.71 0.094902H984.471C979.087 0.094902 975.781 3.40293 975.781 8.79031V153.305C975.781 158.692 979.087 162 984.471 162H1004.87C1010.26 162 1013.56 158.692 1013.56 153.305V104.913H1026.6L1049.55 154.533C1050.68 157.463 1052.38 159.543 1054.46 160.582C1056.25 161.527 1058.8 161.905 1062.3 161.905H1081.76C1085.06 161.905 1087.52 160.866 1088.84 158.881C1090.26 156.896 1090.35 154.344 1089.03 150.942L1064.66 99.8087ZM1047.47 44.3282V63.0422C1047.47 66.7283 1046.62 69.3748 1045.11 70.7925C1043.41 72.3047 1040.29 73.1554 1036.23 73.1554H1013.66V33.7424H1036.23C1040.39 33.7424 1043.41 34.4985 1045.11 36.1053C1046.62 37.6175 1047.47 40.3585 1047.47 44.3282Z" fill="#FF8400" />
    <path d="M1151.27 0H1130.87C1125.49 0 1122.18 3.30806 1122.18 8.69545V153.21C1122.18 158.597 1125.49 161.905 1130.87 161.905H1151.27C1156.66 161.905 1159.96 158.597 1159.96 153.21V8.69545C1159.87 3.30806 1156.56 0 1151.27 0Z" fill="#FF8400" />
    <path d="M1266.6 0H1239.68C1226.08 0 1215.4 3.78062 1207.85 11.1528C1200.29 18.525 1196.42 29.2053 1196.42 42.8156V119.09C1196.42 132.7 1200.29 143.38 1207.85 150.752C1215.4 158.124 1226.08 161.905 1239.68 161.905H1266.6C1280.2 161.905 1290.87 158.124 1298.43 150.752C1305.98 143.38 1309.86 132.7 1309.86 119.09V42.8156C1309.86 29.2053 1305.98 18.525 1298.43 11.1528C1290.87 3.78062 1280.2 0 1266.6 0ZM1272.17 44.3278V117.672C1272.17 121.736 1271.41 124.666 1270 126.084C1268.58 127.501 1265.65 128.258 1261.59 128.258H1244.5C1240.43 128.258 1237.6 127.501 1236.28 126.084C1234.86 124.666 1234.2 121.736 1234.2 117.672V44.3278C1234.2 40.2636 1234.96 37.3337 1236.28 35.9159C1237.6 34.4982 1240.43 33.742 1244.5 33.742H1261.59C1265.65 33.742 1268.58 34.4982 1270 35.9159C1271.41 37.3337 1272.17 40.2636 1272.17 44.3278Z" fill="#FF8400" />
    <path d="M1458.52 150.942L1434.06 99.8087C1447.66 92.9091 1454.56 80.1495 1454.56 61.8135V43.0994C1454.56 29.6782 1450.59 18.998 1442.94 11.4368C1435.19 3.87553 1424.52 0.094902 1411.11 0.094902H1353.87C1348.49 0.094902 1345.18 3.40293 1345.18 8.79031V153.305C1345.18 158.692 1348.49 162 1353.87 162H1374.27C1379.66 162 1382.96 158.692 1382.96 153.305V104.913H1396L1418.95 154.533C1420.08 157.463 1421.78 159.543 1423.86 160.582C1425.65 161.527 1428.2 161.905 1431.7 161.905H1451.16C1454.46 161.905 1456.92 160.866 1458.24 158.881C1459.66 156.896 1459.84 154.344 1458.52 150.942ZM1416.87 44.3282V63.0422C1416.87 66.7283 1416.02 69.3748 1414.51 70.7925C1412.81 72.3047 1409.69 73.1554 1405.63 73.1554H1383.06V33.7424H1405.63C1409.79 33.7424 1412.81 34.4985 1414.51 36.1053C1416.02 37.6175 1416.87 40.3585 1416.87 44.3282Z" fill="#FF8400" />
</svg>
